<mxfile host="app.diagrams.net" modified="2022-04-10T09:51:21.645Z" agent="5.0 (Macintosh; Intel Mac OS X 10_15_7) AppleWebKit/537.36 (KHTML, like Gecko) Chrome/99.0.4844.84 Safari/537.36" etag="jBiGpFEBsGoVc0-R6eXD" version="17.4.2" type="github">
  <diagram id="SLm1mTghTsgHcQKuZRhO" name="Page-1">
    <mxGraphModel dx="946" dy="557" grid="1" gridSize="10" guides="1" tooltips="1" connect="1" arrows="1" fold="1" page="1" pageScale="1" pageWidth="827" pageHeight="1169" math="0" shadow="0">
      <root>
        <mxCell id="0" />
        <mxCell id="1" parent="0" />
        <mxCell id="KaQqNk_0UXJSSTON_0G3-1" value="文章" style="rounded=0;whiteSpace=wrap;html=1;" vertex="1" parent="1">
          <mxGeometry x="380" y="240" width="120" height="60" as="geometry" />
        </mxCell>
        <mxCell id="KaQqNk_0UXJSSTON_0G3-2" value="&lt;u&gt;ID&lt;/u&gt;" style="ellipse;whiteSpace=wrap;html=1;" vertex="1" parent="1">
          <mxGeometry x="300" y="70" width="120" height="80" as="geometry" />
        </mxCell>
        <mxCell id="KaQqNk_0UXJSSTON_0G3-4" value="文章名" style="ellipse;whiteSpace=wrap;html=1;" vertex="1" parent="1">
          <mxGeometry x="510" y="80" width="120" height="80" as="geometry" />
        </mxCell>
        <mxCell id="KaQqNk_0UXJSSTON_0G3-5" value="创建者" style="ellipse;whiteSpace=wrap;html=1;" vertex="1" parent="1">
          <mxGeometry x="610" y="220" width="120" height="80" as="geometry" />
        </mxCell>
        <mxCell id="KaQqNk_0UXJSSTON_0G3-6" value="所属社团" style="ellipse;whiteSpace=wrap;html=1;" vertex="1" parent="1">
          <mxGeometry x="560" y="350" width="120" height="80" as="geometry" />
        </mxCell>
        <mxCell id="KaQqNk_0UXJSSTON_0G3-7" value="过期时间" style="ellipse;whiteSpace=wrap;html=1;" vertex="1" parent="1">
          <mxGeometry x="280" y="380" width="120" height="80" as="geometry" />
        </mxCell>
        <mxCell id="KaQqNk_0UXJSSTON_0G3-8" value="文章内容" style="ellipse;whiteSpace=wrap;html=1;" vertex="1" parent="1">
          <mxGeometry x="170" y="180" width="120" height="80" as="geometry" />
        </mxCell>
        <mxCell id="KaQqNk_0UXJSSTON_0G3-9" value="所属社团" style="ellipse;whiteSpace=wrap;html=1;" vertex="1" parent="1">
          <mxGeometry x="140" y="300" width="120" height="80" as="geometry" />
        </mxCell>
        <mxCell id="KaQqNk_0UXJSSTON_0G3-10" value="" style="endArrow=none;html=1;rounded=0;" edge="1" parent="1" source="KaQqNk_0UXJSSTON_0G3-5" target="KaQqNk_0UXJSSTON_0G3-1">
          <mxGeometry width="50" height="50" relative="1" as="geometry">
            <mxPoint x="390" y="310" as="sourcePoint" />
            <mxPoint x="440" y="260" as="targetPoint" />
          </mxGeometry>
        </mxCell>
        <mxCell id="KaQqNk_0UXJSSTON_0G3-11" value="" style="endArrow=none;html=1;rounded=0;" edge="1" parent="1" source="KaQqNk_0UXJSSTON_0G3-4" target="KaQqNk_0UXJSSTON_0G3-1">
          <mxGeometry width="50" height="50" relative="1" as="geometry">
            <mxPoint x="390" y="310" as="sourcePoint" />
            <mxPoint x="440" y="260" as="targetPoint" />
          </mxGeometry>
        </mxCell>
        <mxCell id="KaQqNk_0UXJSSTON_0G3-12" value="" style="endArrow=none;html=1;rounded=0;" edge="1" parent="1" source="KaQqNk_0UXJSSTON_0G3-2" target="KaQqNk_0UXJSSTON_0G3-1">
          <mxGeometry width="50" height="50" relative="1" as="geometry">
            <mxPoint x="390" y="310" as="sourcePoint" />
            <mxPoint x="440" y="260" as="targetPoint" />
          </mxGeometry>
        </mxCell>
        <mxCell id="KaQqNk_0UXJSSTON_0G3-13" value="" style="endArrow=none;html=1;rounded=0;" edge="1" parent="1" source="KaQqNk_0UXJSSTON_0G3-8" target="KaQqNk_0UXJSSTON_0G3-1">
          <mxGeometry width="50" height="50" relative="1" as="geometry">
            <mxPoint x="390" y="310" as="sourcePoint" />
            <mxPoint x="440" y="260" as="targetPoint" />
          </mxGeometry>
        </mxCell>
        <mxCell id="KaQqNk_0UXJSSTON_0G3-14" value="" style="endArrow=none;html=1;rounded=0;" edge="1" parent="1" source="KaQqNk_0UXJSSTON_0G3-9" target="KaQqNk_0UXJSSTON_0G3-1">
          <mxGeometry width="50" height="50" relative="1" as="geometry">
            <mxPoint x="390" y="310" as="sourcePoint" />
            <mxPoint x="440" y="260" as="targetPoint" />
          </mxGeometry>
        </mxCell>
        <mxCell id="KaQqNk_0UXJSSTON_0G3-15" value="" style="endArrow=none;html=1;rounded=0;" edge="1" parent="1" source="KaQqNk_0UXJSSTON_0G3-7" target="KaQqNk_0UXJSSTON_0G3-1">
          <mxGeometry width="50" height="50" relative="1" as="geometry">
            <mxPoint x="390" y="310" as="sourcePoint" />
            <mxPoint x="440" y="260" as="targetPoint" />
          </mxGeometry>
        </mxCell>
        <mxCell id="KaQqNk_0UXJSSTON_0G3-16" value="" style="endArrow=none;html=1;rounded=0;" edge="1" parent="1" source="KaQqNk_0UXJSSTON_0G3-6" target="KaQqNk_0UXJSSTON_0G3-1">
          <mxGeometry width="50" height="50" relative="1" as="geometry">
            <mxPoint x="390" y="310" as="sourcePoint" />
            <mxPoint x="440" y="260" as="targetPoint" />
          </mxGeometry>
        </mxCell>
        <mxCell id="KaQqNk_0UXJSSTON_0G3-17" value="类型（只读/可报名）" style="ellipse;whiteSpace=wrap;html=1;" vertex="1" parent="1">
          <mxGeometry x="420" y="390" width="120" height="80" as="geometry" />
        </mxCell>
        <mxCell id="KaQqNk_0UXJSSTON_0G3-18" value="" style="endArrow=none;html=1;rounded=0;" edge="1" parent="1" source="KaQqNk_0UXJSSTON_0G3-17" target="KaQqNk_0UXJSSTON_0G3-1">
          <mxGeometry width="50" height="50" relative="1" as="geometry">
            <mxPoint x="390" y="310" as="sourcePoint" />
            <mxPoint x="450" y="300" as="targetPoint" />
          </mxGeometry>
        </mxCell>
      </root>
    </mxGraphModel>
  </diagram>
</mxfile>
